<svg xmlns="http://www.w3.org/2000/svg" width="720" height="1080" viewBox="0 0 720 1080" role="img" aria-label="Data On Plate visual grammar example">
  <rect width="720" height="1080" fill="#f6f1e7"/>
  <rect x="48" y="54" width="624" height="972" rx="22" fill="#fffaf1" stroke="#111827" stroke-width="2"/>
  <text x="72" y="112" fill="#687386" font-family="Arial, sans-serif" font-size="18" letter-spacing="2">VISUAL GRAMMAR</text>
  <text x="72" y="154" fill="#111827" font-family="Arial, sans-serif" font-weight="700" font-size="34">Data On Plate</text>
  <text x="72" y="190" fill="#687386" font-family="Arial, sans-serif" font-size="18">data_on_plate</text>
  <g transform="translate(72 238)"><rect x="36" y="64" width="510" height="410" rx="18" fill="#eef0ea" stroke="#c9bfae"/><polyline points="82,390 170,332 246,352 318,244 410,272 496,166" fill="none" stroke="#1f5fae" stroke-width="8" stroke-linecap="round" stroke-linejoin="round"/><g stroke="#c9bfae"><line x1="82" y1="120" x2="82" y2="410"/><line x1="82" y1="410" x2="512" y2="410"/><line x1="82" y1="314" x2="512" y2="314"/><line x1="82" y1="218" x2="512" y2="218"/></g><rect x="100" y="532" width="380" height="70" rx="10" fill="white" stroke="#c9bfae"/></g>
  <rect x="72" y="938" width="576" height="46" rx="6" fill="#e8e1d5" stroke="#c9bfae"/>
  <text x="96" y="968" fill="#111827" font-family="Arial, sans-serif" font-size="18">Replace with generated preview when producing a real library.</text>
</svg>
