<svg xmlns="http://www.w3.org/2000/svg" width="720" height="1080" viewBox="0 0 720 1080" role="img" aria-label="Decision Tree Path visual grammar example">
  <rect width="720" height="1080" fill="#f6f1e7"/>
  <rect x="48" y="54" width="624" height="972" rx="22" fill="#fffaf1" stroke="#111827" stroke-width="2"/>
  <text x="72" y="112" fill="#687386" font-family="Arial, sans-serif" font-size="18" letter-spacing="2">VISUAL GRAMMAR</text>
  <text x="72" y="154" fill="#111827" font-family="Arial, sans-serif" font-weight="700" font-size="34">Decision Tree Path</text>
  <text x="72" y="190" fill="#687386" font-family="Arial, sans-serif" font-size="18">decision_tree_path</text>
  <g transform="translate(72 238)"><circle cx="286" cy="100" r="32" fill="#1f5fae" opacity=".75"/><path d="M286 132 V220 M286 220 C200 270 160 340 140 430 M286 220 C286 310 286 380 286 470 M286 220 C380 270 430 340 462 430" fill="none" stroke="#111827" stroke-width="5" stroke-linecap="round"/><rect x="78" y="430" width="126" height="78" rx="10" fill="white" stroke="#c9bfae"/><rect x="223" y="470" width="126" height="78" rx="10" fill="white" stroke="#c9bfae"/><rect x="399" y="430" width="126" height="78" rx="10" fill="white" stroke="#c9bfae"/><rect x="134" y="604" width="304" height="58" rx="10" fill="#e8e1d5"/></g>
  <rect x="72" y="938" width="576" height="46" rx="6" fill="#e8e1d5" stroke="#c9bfae"/>
  <text x="96" y="968" fill="#111827" font-family="Arial, sans-serif" font-size="18">Replace with generated preview when producing a real library.</text>
</svg>
