<svg xmlns="http://www.w3.org/2000/svg" width="720" height="1080" viewBox="0 0 720 1080" role="img" aria-label="Market Ledger visual grammar example">
  <rect width="720" height="1080" fill="#f6f1e7"/>
  <rect x="48" y="54" width="624" height="972" rx="22" fill="#fffaf1" stroke="#111827" stroke-width="2"/>
  <text x="72" y="112" fill="#687386" font-family="Arial, sans-serif" font-size="18" letter-spacing="2">VISUAL GRAMMAR</text>
  <text x="72" y="154" fill="#111827" font-family="Arial, sans-serif" font-weight="700" font-size="34">Market Ledger</text>
  <text x="72" y="190" fill="#687386" font-family="Arial, sans-serif" font-size="18">market_ledger</text>
  <g transform="translate(72 238)"><rect x="40" y="70" width="98" height="350" rx="10" fill="white" stroke="#c9bfae"/><rect x="58" y="102" width="62" height="80" rx="5" fill="#1f5fae" opacity=".25"/><rect x="168" y="70" width="98" height="350" rx="10" fill="white" stroke="#c9bfae"/><rect x="186" y="102" width="62" height="104" rx="5" fill="#087957" opacity=".25"/><rect x="296" y="70" width="98" height="350" rx="10" fill="white" stroke="#c9bfae"/><rect x="314" y="102" width="62" height="128" rx="5" fill="#1f5fae" opacity=".25"/><rect x="424" y="70" width="98" height="350" rx="10" fill="white" stroke="#c9bfae"/><rect x="442" y="102" width="62" height="152" rx="5" fill="#087957" opacity=".25"/><line x1="40" y1="472" x2="550" y2="472" stroke="#111827" stroke-width="3"/><rect x="64" y="520" width="460" height="78" rx="12" fill="#e8e1d5" stroke="#c9bfae"/></g>
  <rect x="72" y="938" width="576" height="46" rx="6" fill="#e8e1d5" stroke="#c9bfae"/>
  <text x="96" y="968" fill="#111827" font-family="Arial, sans-serif" font-size="18">Replace with generated preview when producing a real library.</text>
</svg>
