<svg xmlns="http://www.w3.org/2000/svg" width="720" height="1080" viewBox="0 0 720 1080" role="img" aria-label="Mechanism X-Ray visual grammar example">
  <rect width="720" height="1080" fill="#f6f1e7"/>
  <rect x="48" y="54" width="624" height="972" rx="22" fill="#fffaf1" stroke="#111827" stroke-width="2"/>
  <text x="72" y="112" fill="#687386" font-family="Arial, sans-serif" font-size="18" letter-spacing="2">VISUAL GRAMMAR</text>
  <text x="72" y="154" fill="#111827" font-family="Arial, sans-serif" font-weight="700" font-size="34">Mechanism X-Ray</text>
  <text x="72" y="190" fill="#687386" font-family="Arial, sans-serif" font-size="18">mechanism_xray</text>
  <g transform="translate(72 238)"><rect x="34" y="40" width="508" height="220" rx="18" fill="#ece3d4" stroke="#111827"/><rect x="74" y="78" width="428" height="44" rx="8" fill="#1f5fae" opacity=".14"/><rect x="74" y="140" width="428" height="44" rx="8" fill="#087957" opacity=".16"/><rect x="74" y="202" width="428" height="34" rx="8" fill="#b84b3f" opacity=".14"/><path d="M90 235 C180 165 255 190 330 108 C385 52 438 82 500 62" fill="none" stroke="#b84b3f" stroke-width="5"/><circle cx="330" cy="108" r="12" fill="#b84b3f"/><g opacity=".75"><line x1="34" y1="320" x2="542" y2="320" stroke="#c9bfae"/><line x1="34" y1="392" x2="542" y2="392" stroke="#c9bfae"/><line x1="34" y1="464" x2="542" y2="464" stroke="#c9bfae"/></g><rect x="94" y="348" width="150" height="74" rx="10" fill="white" stroke="#c9bfae"/><rect x="296" y="348" width="190" height="74" rx="10" fill="white" stroke="#c9bfae"/></g>
  <rect x="72" y="938" width="576" height="46" rx="6" fill="#e8e1d5" stroke="#c9bfae"/>
  <text x="96" y="968" fill="#111827" font-family="Arial, sans-serif" font-size="18">Replace with generated preview when producing a real library.</text>
</svg>
