<svg xmlns="http://www.w3.org/2000/svg" width="720" height="1080" viewBox="0 0 720 1080" role="img" aria-label="Verification Rail visual grammar example">
  <rect width="720" height="1080" fill="#f6f1e7"/>
  <rect x="48" y="54" width="624" height="972" rx="22" fill="#fffaf1" stroke="#111827" stroke-width="2"/>
  <text x="72" y="112" fill="#687386" font-family="Arial, sans-serif" font-size="18" letter-spacing="2">VISUAL GRAMMAR</text>
  <text x="72" y="154" fill="#111827" font-family="Arial, sans-serif" font-weight="700" font-size="34">Verification Rail</text>
  <text x="72" y="190" fill="#687386" font-family="Arial, sans-serif" font-size="18">verification_rail</text>
  <g transform="translate(72 238)"><line x1="120" y1="50" x2="120" y2="600" stroke="#1f5fae" stroke-width="8" stroke-linecap="round"/><circle cx="120" cy="96" r="22" fill="#087957"/><circle cx="120" cy="278" r="22" fill="#b07a32"/><circle cx="120" cy="460" r="22" fill="#1f5fae"/><rect x="176" y="64" width="330" height="86" rx="12" fill="white" stroke="#c9bfae"/><rect x="176" y="246" width="330" height="86" rx="12" fill="white" stroke="#c9bfae"/><rect x="176" y="428" width="330" height="86" rx="12" fill="white" stroke="#c9bfae"/><path d="M230 590 h230" stroke="#087957" stroke-width="12" stroke-linecap="round"/><path d="M478 568 l32 26 -50 46" fill="none" stroke="#087957" stroke-width="10" stroke-linecap="round" stroke-linejoin="round"/></g>
  <rect x="72" y="938" width="576" height="46" rx="6" fill="#e8e1d5" stroke="#c9bfae"/>
  <text x="96" y="968" fill="#111827" font-family="Arial, sans-serif" font-size="18">Replace with generated preview when producing a real library.</text>
</svg>
